<svg width="64" height="64" viewBox="0 0 64 64" fill="none" xmlns="http://www.w3.org/2000/svg">
  <!-- Background circle with gradient -->
  <circle cx="32" cy="32" r="32" fill="url(#bgGradient)"/>
  
  <!-- Glow effect -->
  <circle cx="32" cy="32" r="28" fill="url(#glowGradient)" opacity="0.6"/>
  
  <!-- Bug icon -->
  <g transform="translate(16, 16)">
    <!-- Bug body -->
    <ellipse cx="16" cy="20" rx="8" ry="10" fill="#4ADE80"/>
    <circle cx="16" cy="12" r="6" fill="#4ADE80"/>
    
    <!-- Bug eyes -->
    <circle cx="13" cy="11" r="1.5" fill="#000000"/>
    <circle cx="19" cy="11" r="1.5" fill="#000000"/>
    
    <!-- Bug antennae -->
    <path d="M 12 8 Q 10 4 8 2" stroke="#4ADE80" stroke-width="1.5" stroke-linecap="round" fill="none"/>
    <path d="M 20 8 Q 22 4 24 2" stroke="#4ADE80" stroke-width="1.5" stroke-linecap="round" fill="none"/>
    
    <!-- Bug legs (left) -->
    <path d="M 10 15 Q 4 15 2 18" stroke="#4ADE80" stroke-width="1.5" stroke-linecap="round" fill="none"/>
    <path d="M 9 20 Q 3 20 1 23" stroke="#4ADE80" stroke-width="1.5" stroke-linecap="round" fill="none"/>
    <path d="M 10 25 Q 4 25 2 28" stroke="#4ADE80" stroke-width="1.5" stroke-linecap="round" fill="none"/>
    
    <!-- Bug legs (right) -->
    <path d="M 22 15 Q 28 15 30 18" stroke="#4ADE80" stroke-width="1.5" stroke-linecap="round" fill="none"/>
    <path d="M 23 20 Q 29 20 31 23" stroke="#4ADE80" stroke-width="1.5" stroke-linecap="round" fill="none"/>
    <path d="M 22 25 Q 28 25 30 28" stroke="#4ADE80" stroke-width="1.5" stroke-linecap="round" fill="none"/>
    
    <!-- Bug stripes -->
    <ellipse cx="16" cy="18" rx="6" ry="1" fill="#000000" opacity="0.2"/>
    <ellipse cx="16" cy="22" rx="6" ry="1" fill="#000000" opacity="0.2"/>
  </g>
  
  <!-- Gradients -->
  <defs>
    <radialGradient id="bgGradient">
      <stop offset="0%" style="stop-color:#1a1a1a;stop-opacity:1" />
      <stop offset="100%" style="stop-color:#000000;stop-opacity:1" />
    </radialGradient>
    <radialGradient id="glowGradient">
      <stop offset="0%" style="stop-color:#4ADE80;stop-opacity:0.3" />
      <stop offset="100%" style="stop-color:#4ADE80;stop-opacity:0" />
    </radialGradient>
  </defs>
</svg>

